<svg width="720" height="330" viewBox="0 0 720 330" fill="none" xmlns="http://www.w3.org/2000/svg">
<path d="M390.374 279.975L446.072 222.17L486.951 224.352L413.071 303.531L390.374 279.975Z" fill="white"/>
<path d="M541.772 159.785L497.19 206.488L456.798 206.488L503.174 156.68L541.772 159.785Z" fill="#C588CF"/>
<path d="M386.186 2.08483L485.948 102.074L446.648 103.052L366.139 22.269L386.186 2.08483Z" fill="white"/>
<path d="M500.569 161.798L463.915 117.679L504.159 117.679L540.575 159.223L500.569 161.798Z" fill="#C588CF"/>
<path d="M319.762 214.174L418.179 298.97L395.483 322.525L276.677 214.174L319.762 214.174Z" fill="white"/>
<path d="M271.89 119.774L368.219 19.7848L390.374 42.7787L312.581 119.774L271.89 119.774Z" fill="white"/>
<g filter="url(#filter0_d_1155_2)">
<path d="M46.1296 154.313C46.1296 151.944 45.4949 150.082 44.2254 148.728C43.0406 147.289 41.2634 146.57 38.8938 146.57C36.6935 146.57 34.7893 147.162 33.1814 148.347C31.6581 149.532 30.6848 151.775 30.2617 155.075L8.55441 151.14C9.4007 144.539 12.4896 139.292 17.8213 135.399C23.1529 131.506 30.7695 129.559 40.671 129.559C47.4413 129.559 53.1115 130.533 57.6814 132.479C62.336 134.341 65.8058 137.091 68.0908 140.73C70.4604 144.37 71.6452 148.728 71.6452 153.806V175.132C71.6452 178.517 73.1685 180.21 76.2151 180.21C77.4846 180.21 78.4578 180.041 79.1348 179.702L77.8654 193.539C75.0726 194.893 71.6029 195.57 67.4561 195.57C63.817 195.57 60.6011 195.02 57.8084 193.92C55.0156 192.735 52.8153 191.042 51.2073 188.842C49.5994 186.642 48.7954 183.764 48.7954 180.21V179.194L51.3343 178.813C51.3343 182.199 50.2764 185.161 48.1607 187.699C46.1296 190.238 43.4215 192.185 40.0363 193.539C36.7358 194.893 33.0544 195.57 28.9923 195.57C24.5916 195.57 20.8256 194.893 17.6943 193.539C14.5631 192.185 12.1511 190.238 10.4586 187.699C8.85061 185.161 8.04664 182.072 8.04664 178.433C8.04664 173.778 9.44301 169.97 12.2358 167.008C15.1131 164.046 19.4292 162.015 25.184 160.914L48.1607 156.091L48.0337 166.881L38.6399 169.039C36.5242 169.462 34.9586 170.181 33.943 171.197C33.0121 172.128 32.5467 173.44 32.5467 175.132C32.5467 176.74 33.0968 178.009 34.1969 178.94C35.2971 179.787 36.6512 180.21 38.2591 180.21C39.3593 180.21 40.3748 180.041 41.3058 179.702C42.2367 179.364 43.0406 178.856 43.7177 178.179C44.4793 177.502 45.0717 176.655 45.4949 175.64C45.918 174.624 46.1296 173.397 46.1296 171.959V154.313ZM116.342 129.559C123.451 129.559 129.29 130.575 133.86 132.606C138.515 134.553 142.027 137.134 144.397 140.35C146.766 143.481 148.12 146.781 148.459 150.251L124.72 157.487C124.466 154.017 123.747 151.436 122.562 149.743C121.462 148.051 119.685 147.205 117.231 147.205C115.115 147.205 113.338 147.712 111.899 148.728C110.46 149.743 109.403 151.394 108.725 153.679C108.048 155.964 107.71 159.01 107.71 162.819C107.71 166.712 108.091 169.758 108.852 171.959C109.699 174.159 110.841 175.724 112.28 176.655C113.803 177.502 115.496 177.925 117.358 177.925C119.05 177.925 120.404 177.586 121.42 176.909C122.52 176.148 123.409 175.09 124.086 173.736C124.763 172.297 125.186 170.604 125.355 168.658L148.332 175.894C147.993 179.533 146.512 182.833 143.889 185.795C141.35 188.757 137.838 191.127 133.352 192.904C128.867 194.681 123.578 195.57 117.485 195.57C110.206 195.57 103.902 194.301 98.57 191.762C93.2384 189.138 89.1339 185.372 86.2565 180.464C83.3792 175.555 81.9405 169.589 81.9405 162.565C81.9405 155.541 83.3792 149.574 86.2565 144.666C89.1339 139.757 93.1538 136.034 98.3161 133.495C103.478 130.871 109.487 129.559 116.342 129.559ZM157.007 194.301V130.829H180.11L180.745 143.904C182.607 139.249 185.399 135.695 189.123 133.241C192.847 130.787 197.29 129.559 202.452 129.559C207.191 129.559 211.211 130.66 214.512 132.86C217.897 134.976 220.309 138.107 221.748 142.254C223.102 139.461 224.794 137.134 226.825 135.272C228.941 133.41 231.353 132.014 234.061 131.083C236.854 130.067 239.816 129.559 242.947 129.559C247.179 129.559 250.818 130.406 253.864 132.098C256.995 133.706 259.407 136.161 261.1 139.461C262.793 142.677 263.639 146.654 263.639 151.394V194.301H237.996V157.741C237.996 154.356 237.446 152.028 236.346 150.759C235.246 149.405 233.68 148.728 231.649 148.728C229.957 148.728 228.433 149.151 227.079 149.997C225.81 150.844 224.837 152.198 224.159 154.06C223.482 155.837 223.144 158.079 223.144 160.788V194.301H197.501V157.741C197.501 154.356 196.951 152.028 195.851 150.759C194.751 149.405 193.185 148.728 191.154 148.728C189.546 148.728 188.065 149.151 186.711 149.997C185.442 150.844 184.426 152.198 183.665 154.06C182.988 155.837 182.649 158.122 182.649 160.914V194.301H157.007ZM327.685 149.997V170.054H279.573V149.997H327.685Z" fill="white"/>
<path d="M427.004 130.829H453.662L435.509 194.301H404.154L394.76 159.518L385.62 194.301H354.265L336.112 130.829H362.771L371.657 175.894L382.32 130.829H407.455L418.118 175.894L427.004 130.829Z" fill="#C588CF"/>
</g>
<path d="M15.9173 252V226.794H25.7111C29.2506 226.794 31.6561 227.55 32.9276 229.062C34.0616 230.333 34.6286 231.794 34.6286 233.443C34.6286 235.436 34.01 236.914 32.7729 237.876C32.3606 238.186 31.742 238.529 30.9173 238.907C32.498 239.251 33.7351 239.955 34.6286 241.021C35.5564 242.086 36.0204 243.409 36.0204 244.99C36.0204 246.983 35.2987 248.649 33.8554 249.99C32.4465 251.33 30.1441 252 26.9482 252H15.9173ZM20.1956 237.258H25.5564C28.6492 237.258 30.1956 236.21 30.1956 234.113C30.1956 232.911 29.8176 232.052 29.0616 231.536C28.3399 230.986 27.1887 230.711 25.608 230.711H20.1956V237.258ZM20.1956 248.082H26.8451C28.4946 248.082 29.7145 247.825 30.5049 247.309C31.2953 246.759 31.6905 245.832 31.6905 244.526C31.6905 242.292 29.9035 241.175 26.3296 241.175H20.1956V248.082ZM43.8567 226.794H48.1351V252H43.8567V226.794ZM67.1233 230.66V252H62.8449V230.66H55.2161V226.794H74.7521V230.66H67.1233ZM85.3154 233.134C85.3154 234.199 85.7106 234.973 86.501 235.454C87.2914 236.038 88.9752 236.639 91.5525 237.258C94.2673 237.911 96.2433 238.804 97.4804 239.938C98.7518 241.072 99.3876 242.704 99.3876 244.835C99.3876 247.069 98.5457 248.873 96.8618 250.247C95.2123 251.622 93.0474 252.309 90.367 252.309C86.4838 252.309 82.9787 250.935 79.8515 248.186L82.5319 244.99C85.1436 247.223 87.7896 248.34 90.4701 248.34C91.8103 248.34 92.8927 248.048 93.7175 247.464C94.5422 246.845 94.9546 246.055 94.9546 245.093C94.9546 244.131 94.5766 243.375 93.8206 242.825C93.0989 242.275 91.7931 241.777 89.903 241.33C86.6384 240.574 84.3704 239.68 83.0989 238.649C81.6213 237.515 80.8824 235.78 80.8824 233.443C80.8824 231.175 81.7072 229.405 83.3567 228.134C85.0061 226.828 87.1195 226.175 89.6969 226.175C93.1677 226.175 96.1402 227.189 98.6144 229.216L96.3463 232.412C95.5903 231.725 94.5766 231.175 93.3051 230.763C92.0336 230.316 90.7793 230.093 89.5422 230.093C88.2707 230.093 87.2398 230.368 86.4494 230.918C85.6934 231.433 85.3154 232.172 85.3154 233.134ZM119.579 252V226.794H123.858V237.722H136.332V226.794H140.61V252H136.332V241.691H123.858V252H119.579ZM160.004 252H155.674V242.052L146.292 226.794H150.983L157.839 238.237L164.746 226.794H169.385L160.004 242.052V252ZM183.776 226.794C188.278 226.794 191.749 227.893 194.189 230.093C196.629 232.258 197.848 235.316 197.848 239.268C197.848 243.289 196.646 246.416 194.24 248.649C191.835 250.883 188.244 252 183.467 252H175.116V226.794H183.776ZM183.622 230.711H179.395V247.979H184.086C187.178 247.979 189.532 247.258 191.147 245.814C192.763 244.337 193.57 242.189 193.57 239.371C193.57 233.598 190.254 230.711 183.622 230.711Z" fill="white"/>
<defs>
<filter id="filter0_d_1155_2" x="3.28916" y="129.559" width="455.13" height="75.5254" filterUnits="userSpaceOnUse" color-interpolation-filters="sRGB">
<feFlood flood-opacity="0" result="BackgroundImageFix"/>
<feColorMatrix in="SourceAlpha" type="matrix" values="0 0 0 0 0 0 0 0 0 0 0 0 0 0 0 0 0 0 127 0" result="hardAlpha"/>
<feOffset dy="4.75747"/>
<feGaussianBlur stdDeviation="2.37874"/>
<feComposite in2="hardAlpha" operator="out"/>
<feColorMatrix type="matrix" values="0 0 0 0 0 0 0 0 0 0 0 0 0 0 0 0 0 0 0.25 0"/>
<feBlend mode="normal" in2="BackgroundImageFix" result="effect1_dropShadow_1155_2"/>
<feBlend mode="normal" in="SourceGraphic" in2="effect1_dropShadow_1155_2" result="shape"/>
</filter>
</defs>
</svg>
